<?xml version="1.0" encoding="utf-8"?>
<!-- Generator: Adobe Illustrator 27.0.0, SVG Export Plug-In . SVG Version: 6.00 Build 0)  -->
<svg version="1.1" id="Layer_1" xmlns="http://www.w3.org/2000/svg" xmlns:xlink="http://www.w3.org/1999/xlink" x="0px" y="0px"
	 viewBox="500 230 920 720" style="enable-background:new 0 0 1920 1080;" xml:space="preserve" color = "#b49c73">
<style type="text/css">
	.st0{fill:#B49C73;}
	.st1{fill-rule:evenodd;clip-rule:evenodd;fill:#b49c73;}
	.st2{fill:#b49c73;}
</style>
<!-- <rect width="1920" height="1080"/> -->
<g transform="translate(0, 0)">
	<rect x="1052.03" y="399.36" class="st1" width="15.73" height="177.21"/>
	<rect x="1076.63" y="399.36" class="st1" width="15.73" height="177.21"/>
	<rect x="1101.06" y="399.36" class="st1" width="15.9" height="177.21"/>
	<rect x="1045.17" y="384.3" class="st1" width="78.48" height="8.87"/>
	<rect x="1032.96" y="369.74" class="st1" width="103.08" height="9.04"/>
	<rect x="500" y="596.98" class="st1" width="636.03" height="9.04"/>
	<rect x="1332.82" y="399.36" class="st1" width="15.9" height="177.21"/>
	<rect x="1357.42" y="399.36" class="st1" width="15.73" height="177.21"/>
	<rect x="1381.85" y="399.36" class="st1" width="15.9" height="177.21"/>
	<rect x="1325.96" y="384.3" class="st1" width="78.48" height="8.87"/>
	<rect x="1313.74" y="369.74" class="st1" width="103.08" height="9.04"/>
	<rect x="1325.96" y="582.59" class="st1" width="78.48" height="9.04"/>
	<rect x="1313.74" y="596.98" class="st1" width="103.08" height="9.04"/>
	<rect x="1192.43" y="399.36" class="st1" width="15.9" height="177.21"/>
	<rect x="1217.02" y="399.36" class="st1" width="15.73" height="177.21"/>
	<rect x="1241.46" y="399.36" class="st1" width="15.9" height="177.21"/>
	<rect x="1185.57" y="384.3" class="st1" width="78.48" height="8.87"/>
	<rect x="1173.35" y="369.74" class="st1" width="103.08" height="9.04"/>
	<rect x="1185.57" y="582.59" class="st1" width="78.48" height="9.04"/>
	<rect x="1173.35" y="596.98" class="st1" width="103.08" height="9.04"/>
	<path class="st1" d="M1029.78,360.7h195.11H1420l-195.11-80.82L1029.78,360.7z M1224.89,300.46c12.88,0,23.43,10.54,23.43,23.43
		c0,12.88-10.54,23.43-23.43,23.43s-23.43-10.54-23.43-23.43C1201.46,311,1212,300.46,1224.89,300.46L1224.89,300.46z"/>
	<path class="st2" d="M500,569.37h26.61v-73.96h37.65v-25.1h-37.65v-51.54h47.69v-25.1H500V569.37z M686.91,569.37l-22.26-78.48
		c11.55-7.03,18.24-19.58,18.24-35.98v-19.24c0-25.43-16.23-42-41.5-42h-41.67v175.7h26.61v-72.46h13.72l19.24,72.46H686.91z
		 M626.34,418.77h13.72c10.21,0,16.23,6.02,16.23,16.4v20.25c0,10.37-6.02,16.4-16.23,16.4h-13.72V418.77z M771.75,569.37h27.11
		l-29.12-175.7H734.1l-29.12,175.7h26.61l5.86-38.82h28.61L771.75,569.37z M740.96,504.94l10.71-73.63l10.88,73.63H740.96z
		 M824.29,569.37h26.1V456.92l35.14,112.45h28.11v-175.7h-26.1v117.97l-33.97-117.97h-29.28V569.37z M986.94,571.88
		c24.77,0,41.67-17.07,41.67-41.67v-25.1h-26.1v25.1c0,10.37-6.36,16.57-15.39,16.57s-15.23-6.19-15.23-16.57v-97.39
		c0-10.21,6.19-16.57,15.23-16.57s15.39,6.36,15.39,16.57v20.58h26.1v-20.58c0-24.6-16.9-41.67-41.67-41.67
		c-24.93,0-41.67,17.07-41.67,41.67v97.39C945.27,554.81,962.01,571.88,986.94,571.88L986.94,571.88z"/>
	<path class="st2" d="M526.61,797.61v-76.47h31.63v76.47h26.61V622.08h-26.61v73.96h-31.63v-73.96H500v175.53H526.61z
		 M639.05,797.61h75.47v-25.1h-48.86v-51.37h38.82v-25.1h-38.82v-48.86h48.86v-25.1h-75.47V797.61z M762.04,797.61h26.61V622.08
		h-26.61V797.61z M842.7,797.61h26.1V685.33l35.14,112.28h28.11V622.08h-26.1v117.8l-33.8-117.8H842.7V797.61z M1073.62,797.61
		l-22.26-78.48c11.55-7.03,18.24-19.58,18.24-35.81v-19.41c0-25.27-16.23-41.83-41.67-41.83h-41.67v175.53h26.61v-72.46h13.89
		l19.24,72.46H1073.62z M1012.88,647.18h13.89c10.21,0,16.23,6.02,16.23,16.23v20.41c0,10.21-6.02,16.23-16.23,16.23h-13.89V647.18z
		 M1120.47,797.61h26.61V622.08h-26.61V797.61z M1240.79,800.12c24.77,0,41.67-17.07,41.67-41.67v-24.93h-26.1v24.93
		c0,10.37-6.36,16.57-15.39,16.57s-15.23-6.19-15.23-16.57v-97.22c0-10.37,6.19-16.57,15.23-16.57s15.39,6.19,15.39,16.57v20.58
		h26.1v-20.58c0-24.6-16.9-41.67-41.67-41.67c-24.93,0-41.67,17.07-41.67,41.67v97.22C1199.12,783.05,1215.85,800.12,1240.79,800.12
		L1240.79,800.12z M1358.42,797.61v-76.47h31.63v76.47h26.61V622.08h-26.61v73.96h-31.63v-73.96h-26.61v175.53H1358.42z"/>
	<rect x="1045.17" y="582.59" class="st1" width="78.48" height="9.04"/>
</g>
</svg>
